<mxfile host="app.diagrams.net" agent="Mozilla/5.0 (Macintosh; Intel Mac OS X 10_15_7) AppleWebKit/537.36 (KHTML, like Gecko) Chrome/133.0.0.0 Safari/537.36" version="26.0.15">
  <diagram name="Page-1" id="jZnOfrKK2-8gGsU44vAH">
    <mxGraphModel dx="1122" dy="684" grid="1" gridSize="10" guides="1" tooltips="1" connect="1" arrows="1" fold="1" page="1" pageScale="1" pageWidth="827" pageHeight="1169" math="0" shadow="0">
      <root>
        <mxCell id="0" />
        <mxCell id="1" parent="0" />
        <mxCell id="s0oiW1ATe3Gw0BUoovg0-14" style="rounded=0;orthogonalLoop=1;jettySize=auto;html=1;" edge="1" parent="1" source="s0oiW1ATe3Gw0BUoovg0-3" target="s0oiW1ATe3Gw0BUoovg0-6">
          <mxGeometry relative="1" as="geometry">
            <Array as="points">
              <mxPoint x="320" y="130" />
            </Array>
          </mxGeometry>
        </mxCell>
        <mxCell id="s0oiW1ATe3Gw0BUoovg0-22" value="2." style="edgeLabel;html=1;align=center;verticalAlign=middle;resizable=0;points=[];" vertex="1" connectable="0" parent="s0oiW1ATe3Gw0BUoovg0-14">
          <mxGeometry x="-0.0497" y="-1" relative="1" as="geometry">
            <mxPoint as="offset" />
          </mxGeometry>
        </mxCell>
        <mxCell id="s0oiW1ATe3Gw0BUoovg0-15" style="rounded=0;orthogonalLoop=1;jettySize=auto;html=1;" edge="1" parent="1" source="s0oiW1ATe3Gw0BUoovg0-3" target="s0oiW1ATe3Gw0BUoovg0-8">
          <mxGeometry relative="1" as="geometry" />
        </mxCell>
        <mxCell id="s0oiW1ATe3Gw0BUoovg0-30" value="5. Token" style="edgeLabel;html=1;align=center;verticalAlign=middle;resizable=0;points=[];" vertex="1" connectable="0" parent="s0oiW1ATe3Gw0BUoovg0-15">
          <mxGeometry x="-0.2133" y="1" relative="1" as="geometry">
            <mxPoint as="offset" />
          </mxGeometry>
        </mxCell>
        <mxCell id="s0oiW1ATe3Gw0BUoovg0-16" style="rounded=0;orthogonalLoop=1;jettySize=auto;html=1;" edge="1" parent="1" source="s0oiW1ATe3Gw0BUoovg0-3" target="s0oiW1ATe3Gw0BUoovg0-5">
          <mxGeometry relative="1" as="geometry" />
        </mxCell>
        <mxCell id="s0oiW1ATe3Gw0BUoovg0-31" value="&lt;div&gt;&lt;br&gt;&lt;/div&gt;" style="edgeLabel;html=1;align=center;verticalAlign=middle;resizable=0;points=[];" vertex="1" connectable="0" parent="s0oiW1ATe3Gw0BUoovg0-16">
          <mxGeometry x="-0.4933" y="1" relative="1" as="geometry">
            <mxPoint x="14" y="4" as="offset" />
          </mxGeometry>
        </mxCell>
        <mxCell id="s0oiW1ATe3Gw0BUoovg0-29" value="6. Session" style="rounded=0;orthogonalLoop=1;jettySize=auto;html=1;dashed=1;" edge="1" parent="1" source="s0oiW1ATe3Gw0BUoovg0-3" target="s0oiW1ATe3Gw0BUoovg0-7">
          <mxGeometry relative="1" as="geometry">
            <Array as="points">
              <mxPoint x="210" y="220" />
            </Array>
          </mxGeometry>
        </mxCell>
        <mxCell id="s0oiW1ATe3Gw0BUoovg0-3" value="&lt;div&gt;&amp;lt;microservice; FastAPI&amp;gt;&lt;/div&gt;my-ride-api" style="verticalAlign=top;align=left;spacingTop=8;spacingLeft=2;spacingRight=12;shape=cube;size=10;direction=south;fontStyle=4;html=1;whiteSpace=wrap;fillColor=#dae8fc;strokeColor=#6c8ebf;" vertex="1" parent="1">
          <mxGeometry x="250" y="170" width="150" height="70" as="geometry" />
        </mxCell>
        <mxCell id="s0oiW1ATe3Gw0BUoovg0-20" style="rounded=0;orthogonalLoop=1;jettySize=auto;html=1;" edge="1" parent="1" source="s0oiW1ATe3Gw0BUoovg0-5" target="s0oiW1ATe3Gw0BUoovg0-12">
          <mxGeometry relative="1" as="geometry" />
        </mxCell>
        <mxCell id="s0oiW1ATe3Gw0BUoovg0-5" value="&lt;div&gt;&amp;lt;microservice n+1&amp;gt;&lt;/div&gt;" style="verticalAlign=top;align=left;spacingTop=8;spacingLeft=2;spacingRight=12;shape=cube;size=10;direction=south;fontStyle=4;html=1;whiteSpace=wrap;" vertex="1" parent="1">
          <mxGeometry x="500" y="250" width="150" height="70" as="geometry" />
        </mxCell>
        <mxCell id="s0oiW1ATe3Gw0BUoovg0-17" style="rounded=0;orthogonalLoop=1;jettySize=auto;html=1;" edge="1" parent="1" source="s0oiW1ATe3Gw0BUoovg0-6" target="s0oiW1ATe3Gw0BUoovg0-10">
          <mxGeometry relative="1" as="geometry" />
        </mxCell>
        <mxCell id="s0oiW1ATe3Gw0BUoovg0-25" value="3. Token" style="rounded=0;orthogonalLoop=1;jettySize=auto;html=1;dashed=1;" edge="1" parent="1" source="s0oiW1ATe3Gw0BUoovg0-6" target="s0oiW1ATe3Gw0BUoovg0-3">
          <mxGeometry relative="1" as="geometry">
            <Array as="points">
              <mxPoint x="250" y="140" />
            </Array>
          </mxGeometry>
        </mxCell>
        <mxCell id="s0oiW1ATe3Gw0BUoovg0-6" value="&lt;div&gt;&amp;lt;auth; Keycloak&amp;gt;&lt;/div&gt;" style="verticalAlign=top;align=left;spacingTop=8;spacingLeft=2;spacingRight=12;shape=cube;size=10;direction=south;fontStyle=4;html=1;whiteSpace=wrap;" vertex="1" parent="1">
          <mxGeometry x="210" y="30" width="150" height="70" as="geometry" />
        </mxCell>
        <mxCell id="s0oiW1ATe3Gw0BUoovg0-13" style="rounded=0;orthogonalLoop=1;jettySize=auto;html=1;" edge="1" parent="1" source="s0oiW1ATe3Gw0BUoovg0-7" target="s0oiW1ATe3Gw0BUoovg0-3">
          <mxGeometry relative="1" as="geometry">
            <Array as="points">
              <mxPoint x="210" y="190" />
            </Array>
          </mxGeometry>
        </mxCell>
        <mxCell id="s0oiW1ATe3Gw0BUoovg0-21" value="1." style="edgeLabel;html=1;align=center;verticalAlign=middle;resizable=0;points=[];" vertex="1" connectable="0" parent="s0oiW1ATe3Gw0BUoovg0-13">
          <mxGeometry x="-0.4261" y="3" relative="1" as="geometry">
            <mxPoint x="14" y="3" as="offset" />
          </mxGeometry>
        </mxCell>
        <mxCell id="s0oiW1ATe3Gw0BUoovg0-7" value="&lt;div&gt;&amp;lt;front end&amp;gt;&lt;/div&gt;" style="verticalAlign=top;align=left;spacingTop=8;spacingLeft=2;spacingRight=12;shape=cube;size=10;direction=south;fontStyle=4;html=1;whiteSpace=wrap;" vertex="1" parent="1">
          <mxGeometry x="10" y="170" width="150" height="70" as="geometry" />
        </mxCell>
        <mxCell id="s0oiW1ATe3Gw0BUoovg0-18" style="rounded=0;orthogonalLoop=1;jettySize=auto;html=1;" edge="1" parent="1" source="s0oiW1ATe3Gw0BUoovg0-8" target="s0oiW1ATe3Gw0BUoovg0-11">
          <mxGeometry relative="1" as="geometry" />
        </mxCell>
        <mxCell id="s0oiW1ATe3Gw0BUoovg0-8" value="&lt;div&gt;&amp;lt;microservice n&amp;gt;&lt;/div&gt;" style="verticalAlign=top;align=left;spacingTop=8;spacingLeft=2;spacingRight=12;shape=cube;size=10;direction=south;fontStyle=4;html=1;whiteSpace=wrap;" vertex="1" parent="1">
          <mxGeometry x="500" y="170" width="150" height="70" as="geometry" />
        </mxCell>
        <mxCell id="s0oiW1ATe3Gw0BUoovg0-10" value="DB 0" style="shape=datastore;whiteSpace=wrap;html=1;" vertex="1" parent="1">
          <mxGeometry x="400" y="35" width="60" height="60" as="geometry" />
        </mxCell>
        <mxCell id="s0oiW1ATe3Gw0BUoovg0-11" value="DB n" style="shape=datastore;whiteSpace=wrap;html=1;" vertex="1" parent="1">
          <mxGeometry x="700" y="175" width="60" height="60" as="geometry" />
        </mxCell>
        <mxCell id="s0oiW1ATe3Gw0BUoovg0-12" value="DB n+1" style="shape=datastore;whiteSpace=wrap;html=1;" vertex="1" parent="1">
          <mxGeometry x="700" y="255" width="60" height="60" as="geometry" />
        </mxCell>
        <mxCell id="s0oiW1ATe3Gw0BUoovg0-27" style="rounded=0;orthogonalLoop=1;jettySize=auto;html=1;" edge="1" parent="1" source="s0oiW1ATe3Gw0BUoovg0-3" target="s0oiW1ATe3Gw0BUoovg0-3">
          <mxGeometry relative="1" as="geometry">
            <Array as="points">
              <mxPoint x="290" y="280" />
            </Array>
          </mxGeometry>
        </mxCell>
        <mxCell id="s0oiW1ATe3Gw0BUoovg0-28" value="4. Encrypt/put/rotate/retrieve token&lt;div&gt;into/from&amp;nbsp;&lt;span style=&quot;background-color: light-dark(#ffffff, var(--ge-dark-color, #121212)); color: light-dark(rgb(0, 0, 0), rgb(255, 255, 255));&quot;&gt;session&lt;/span&gt;&lt;/div&gt;" style="edgeLabel;html=1;align=center;verticalAlign=middle;resizable=0;points=[];fontStyle=1" vertex="1" connectable="0" parent="s0oiW1ATe3Gw0BUoovg0-27">
          <mxGeometry x="-0.2255" y="-1" relative="1" as="geometry">
            <mxPoint x="18" y="19" as="offset" />
          </mxGeometry>
        </mxCell>
      </root>
    </mxGraphModel>
  </diagram>
</mxfile>
